<svg width="127" height="36" viewBox="0 0 127 36" fill="none" xmlns="http://www.w3.org/2000/svg">
<path d="M19.3419 7.56801H15.5562L17.4583 4.28083L19.3419 0.993652L21.2441 4.28083L23.1462 7.56801H19.3419Z" fill="#00B8E9"/>
<path d="M11.7521 20.7169H7.96631L9.86844 17.4298L11.7521 14.1426L13.6542 17.4298L15.5564 20.7169H11.7521Z" fill="#00B8E9"/>
<path d="M23.1463 27.2912H19.342L21.2442 24.004L23.1463 20.7168L25.0484 24.004L26.9321 27.2912H23.1463Z" fill="#00B8E9"/>
<path d="M30.7364 27.2912H26.9321L28.8343 24.004L30.7364 20.7168L32.6385 24.004L34.5222 27.2912H30.7364Z" fill="#00B8E9"/>
<path d="M26.932 20.7169H23.1462L25.0484 17.4298L26.932 14.1426L28.8342 17.4298L30.7363 20.7169H26.932Z" fill="#544BFD"/>
<path d="M7.96637 27.2912H4.16211L6.06424 24.004L7.96637 20.7168L9.8685 24.004L11.7522 27.2912H7.96637Z" fill="#544BFD"/>
<path d="M19.3419 33.8654H15.5562L17.4583 30.5782L19.3419 27.291L21.2441 30.5782L23.1462 33.8654H19.3419Z" fill="#544BFD"/>
<path d="M23.1463 14.1427H19.342L21.2442 10.8555L23.1463 7.56836L25.0484 10.8555L26.9321 14.1427H23.1463Z" fill="#2325C9"/>
<path d="M15.5562 14.1427H11.752L13.6541 10.8555L15.5562 7.56836L17.4583 10.8555L19.342 14.1427H15.5562Z" fill="#2325C9"/>
<path d="M34.5221 33.8654H30.7363L32.6385 30.5782L34.5221 27.291L36.4243 30.5782L38.3264 33.8654H34.5221Z" fill="#2325C9"/>
<path d="M4.16202 33.8654H0.376221L2.27835 30.5782L4.16202 27.291L6.06415 30.5782L7.96628 33.8654H4.16202Z" fill="#2325C9"/>
<path d="M11.7521 20.7168H15.5564L13.6542 24.004L11.7521 27.2912L9.86844 24.004L7.96631 20.7168H11.7521Z" fill="#2325C9"/>
<path d="M26.932 20.7168H30.7363L28.8342 24.004L26.932 27.2912L25.0484 24.004L23.1462 20.7168H26.932Z" fill="#2325C9"/>
<path d="M23.1463 27.291H26.9321L25.0484 30.5782L23.1463 33.8654L21.2442 30.5782L19.342 27.291H23.1463Z" fill="#2325C9"/>
<path d="M19.3419 7.56836H23.1462L21.2441 10.8555L19.3419 14.1427L17.4583 10.8555L15.5562 7.56836H19.3419Z" fill="#544BFD"/>
<path d="M15.5562 14.1426H19.342L17.4583 17.4298L15.5562 20.7169L13.6541 17.4298L11.752 14.1426H15.5562Z" fill="#544BFD"/>
<path d="M30.7364 27.291H34.5222L32.6385 30.5782L30.7364 33.8654L28.8343 30.5782L26.9321 27.291H30.7364Z" fill="#544BFD"/>
<path d="M23.1463 14.1426H26.9321L25.0484 17.4298L23.1463 20.7169L21.2442 17.4298L19.342 14.1426H23.1463Z" fill="#00B8E9"/>
<path d="M7.96637 27.291H11.7522L9.8685 30.5782L7.96637 33.8654L6.06424 30.5782L4.16211 27.291H7.96637Z" fill="#00B8E9"/>
<path d="M60.3579 20.0518L58.5296 14.8625H51.3828L49.5545 20.0518H46.3228L53.2665 1.28906H56.6644L63.6081 20.0518H60.3579ZM57.7355 12.2217L55.9627 7.10626C55.8888 6.88465 55.7965 6.57071 55.6672 6.16443C55.5379 5.75815 55.4087 5.35186 55.2794 4.92712C55.1501 4.50237 55.0393 4.15149 54.9654 3.85601C54.8731 4.20689 54.7808 4.5947 54.6515 5.01945C54.5222 5.4442 54.4114 5.85048 54.3006 6.21983C54.1898 6.58917 54.0975 6.88465 54.0421 7.08779L52.2508 12.2032H57.7355V12.2217Z" fill="white"/>
<path d="M81.8905 20.0522H78.3633L72.5461 11.5757L70.6994 13.0715V20.0706H67.6338V1.36328H70.6994V10.3014C71.0687 9.83977 71.4565 9.37808 71.8443 8.9164C72.2321 8.45472 72.62 7.99304 72.9893 7.53135L78.2525 1.36328H81.7243L74.7437 9.54429L81.8905 20.0522Z" fill="white"/>
<path d="M85.9165 20.0522V1.36328H88.9821V20.0522H85.9165Z" fill="white"/>
<path d="M95.4824 20.0522V1.36328H98.548V17.4298H106.489V20.0337H95.4824V20.0522Z" fill="white"/>
<path d="M122.851 20.0518L121.023 14.8625H113.876L112.048 20.0518H108.816L115.76 1.28906H119.158L126.101 20.0518H122.851ZM120.229 12.2217L118.456 7.10626C118.382 6.88465 118.29 6.57071 118.16 6.16443C118.031 5.75815 117.902 5.35186 117.773 4.92712C117.643 4.50237 117.532 4.15149 117.459 3.85601C117.366 4.20689 117.274 4.5947 117.145 5.01945C117.015 5.4442 116.905 5.85048 116.794 6.21983C116.683 6.58917 116.591 6.88465 116.535 7.08779L114.744 12.2032H120.229V12.2217Z" fill="white"/>
<path d="M55.1013 35.5613L53.7046 31.9929H49.2076L47.8263 35.5613H46.5063L50.942 24.2958H52.0394L56.452 35.5613H55.1013ZM53.2979 30.8187L51.9933 27.3424C51.8245 26.9024 51.6505 26.3627 51.4715 25.7232C51.3589 26.2143 51.1978 26.754 50.988 27.3424L49.6681 30.8187H53.2979Z" fill="white"/>
<path d="M66.7583 35.5613H65.2695L59.1379 26.1452H59.0765C59.1584 27.2503 59.1993 28.2633 59.1993 29.1842V35.5613H57.9945V24.3418H59.4679L65.5841 33.7196H65.6455C65.6353 33.5814 65.6123 33.1389 65.5765 32.3919C65.5406 31.6399 65.5278 31.1027 65.5381 30.7804V24.3418H66.7583V35.5613Z" fill="white"/>
<path d="M76.8957 35.5613L75.499 31.9929H71.002L69.6207 35.5613H68.3008L72.7364 24.2958H73.8338L78.2464 35.5613H76.8957ZM75.0923 30.8187L73.7877 27.3424C73.6189 26.9024 73.4449 26.3627 73.2659 25.7232C73.1533 26.2143 72.9922 26.754 72.7824 27.3424L71.4625 30.8187H75.0923Z" fill="white"/>
<path d="M79.7889 35.5613V24.3418H81.0934V34.3795H86.0432V35.5613H79.7889Z" fill="white"/>
<path d="M90.8088 29.9516L93.8017 24.3418H95.2138L91.4688 31.2101V35.5613H90.1489V31.2715L86.4116 24.3418H87.839L90.8088 29.9516Z" fill="white"/>
<path d="M100.217 35.5613H98.9127V25.5006H95.3596V24.3418H103.77V25.5006H100.217V35.5613Z" fill="white"/>
<path d="M105.466 35.5613V24.3418H106.771V35.5613H105.466Z" fill="white"/>
<path d="M114.66 25.3471C113.427 25.3471 112.452 25.759 111.736 26.5827C111.025 27.4012 110.669 28.5242 110.669 29.9516C110.669 31.4199 111.012 32.5556 111.698 33.3589C112.388 34.157 113.371 34.556 114.645 34.556C115.427 34.556 116.32 34.4153 117.323 34.134V35.2774C116.545 35.569 115.586 35.7148 114.445 35.7148C112.793 35.7148 111.516 35.2134 110.616 34.2107C109.72 33.2079 109.273 31.7831 109.273 29.9362C109.273 28.78 109.488 27.767 109.917 26.8973C110.352 26.0276 110.976 25.3574 111.79 24.8867C112.608 24.416 113.57 24.1807 114.675 24.1807C115.852 24.1807 116.88 24.3955 117.76 24.8253L117.208 25.9457C116.358 25.5467 115.509 25.3471 114.66 25.3471Z" fill="white"/>
<path d="M126.102 32.5761C126.102 33.5635 125.744 34.3335 125.028 34.886C124.311 35.4385 123.339 35.7148 122.111 35.7148C120.781 35.7148 119.758 35.5434 119.042 35.2007V33.9421C119.502 34.1365 120.004 34.29 120.546 34.4025C121.088 34.5151 121.625 34.5714 122.157 34.5714C123.027 34.5714 123.682 34.4077 124.122 34.0802C124.562 33.7477 124.782 33.2872 124.782 32.6989C124.782 32.3101 124.703 31.9929 124.544 31.7473C124.391 31.4966 124.13 31.2664 123.761 31.0566C123.398 30.8469 122.843 30.609 122.096 30.343C121.052 29.9695 120.305 29.5269 119.855 29.0153C119.41 28.5037 119.188 27.8361 119.188 27.0124C119.188 26.1478 119.512 25.4597 120.162 24.9481C120.812 24.4365 121.671 24.1807 122.741 24.1807C123.856 24.1807 124.882 24.3853 125.818 24.7946L125.411 25.9304C124.485 25.5415 123.585 25.3471 122.71 25.3471C122.019 25.3471 121.48 25.4955 121.091 25.7922C120.702 26.089 120.508 26.5008 120.508 27.0277C120.508 27.4166 120.579 27.7363 120.722 27.987C120.866 28.2326 121.106 28.4602 121.444 28.67C121.787 28.8746 122.308 29.1023 123.009 29.353C124.186 29.7725 124.994 30.2227 125.434 30.7036C125.879 31.1845 126.102 31.8087 126.102 32.5761Z" fill="white"/>
</svg>
