<svg width="299" height="36" viewBox="0 0 299 36" fill="none" xmlns="http://www.w3.org/2000/svg">
<path d="M21.1984 7.24602H17.1318L19.1651 3.72164L21.1984 0.197266L23.2317 3.72164L25.265 7.24602H21.1984Z" fill="#00B8E9"/>
<path d="M13.0651 21.3095H8.99854L11.0318 17.7851L13.0651 14.2607L15.0984 17.7851L17.1317 21.3095H13.0651Z" fill="#00B8E9"/>
<path d="M25.2651 28.3244H21.1985L23.2318 24.8339L25.2651 21.3096L27.2984 24.8339L29.3317 28.3244H25.2651Z" fill="#00B8E9"/>
<path d="M33.3986 28.3244H29.332L31.3653 24.8339L33.3986 21.3096L35.398 24.8339L37.4313 28.3244H33.3986Z" fill="#00B8E9"/>
<path d="M29.3312 21.3095H25.2646L27.2979 17.7851L29.3312 14.2607L31.3645 17.7851L33.3639 21.3095H29.3312Z" fill="#544BFD"/>
<path d="M8.99848 28.3244H4.93188L6.96518 24.8339L8.99848 21.3096L11.0318 24.8339L13.0651 28.3244H8.99848Z" fill="#544BFD"/>
<path d="M21.1984 35.3735H17.1318L19.1651 31.8491L21.1984 28.3247L23.2317 31.8491L25.265 35.3735H21.1984Z" fill="#544BFD"/>
<path d="M25.2651 14.261H21.1985L23.2318 10.7366L25.2651 7.24609L27.2984 10.7366L29.3317 14.261H25.2651Z" fill="#2325C9"/>
<path d="M17.132 14.261H13.0654L15.0987 10.7366L17.132 7.24609L19.1653 10.7366L21.1986 14.261H17.132Z" fill="#2325C9"/>
<path d="M37.4309 35.3735H33.3982L35.3976 31.8491L37.4309 28.3247L39.4642 31.8491L41.4975 35.3735H37.4309Z" fill="#2325C9"/>
<path d="M4.93207 35.3735H0.865479L2.89878 31.8491L4.93207 28.3247L6.96537 31.8491L8.99866 35.3735H4.93207Z" fill="#2325C9"/>
<path d="M13.0651 21.3096H17.1317L15.0984 24.8339L13.0651 28.3244L11.0318 24.8339L8.99854 21.3096H13.0651Z" fill="#2325C9"/>
<path d="M29.3312 21.3096H33.3978L31.3645 24.8339L29.3312 28.3244L27.2979 24.8339L25.2646 21.3096H29.3312Z" fill="#2325C9"/>
<path d="M25.2651 28.3247H29.3317L27.2984 31.8491L25.2651 35.3735L23.2318 31.8491L21.1985 28.3247H25.2651Z" fill="#2325C9"/>
<path d="M21.1984 7.24609H25.265L23.2317 10.7366L21.1984 14.261L19.1651 10.7366L17.1318 7.24609H21.1984Z" fill="#544BFD"/>
<path d="M17.132 14.2607H21.1986L19.1653 17.7851L17.132 21.3095L15.0987 17.7851L13.0654 14.2607H17.132Z" fill="#544BFD"/>
<path d="M33.3986 28.3247H37.4313L35.398 31.8491L33.3986 35.3735L31.3653 31.8491L29.332 28.3247H33.3986Z" fill="#544BFD"/>
<path d="M25.2651 14.2607H29.3317L27.2984 17.7851L25.2651 21.3095L23.2318 17.7851L21.1985 14.2607H25.2651Z" fill="#00B8E9"/>
<path d="M8.99848 28.3247H13.0651L11.0318 31.8491L8.99848 35.3735L6.96518 31.8491L4.93188 28.3247H8.99848Z" fill="#00B8E9"/>
<path d="M72.6429 27.9286L70.6785 22.2998H62.9719L61.0074 27.9286H57.4941L65.0119 7.64209H68.6763L76.194 27.9286H72.6429ZM69.8096 19.4664L67.8829 13.9509C67.8074 13.7243 67.6941 13.3843 67.5807 12.9309C67.4296 12.4776 67.3163 12.0621 67.1652 11.6087C67.0141 11.1554 66.9007 10.7776 66.8252 10.4376C66.7496 10.8154 66.6363 11.2309 66.4852 11.6843C66.3341 12.1376 66.2207 12.5909 66.1074 13.0065C65.9941 13.422 65.8807 13.7243 65.843 13.9509L63.9163 19.4664H69.8096Z" fill="white"/>
<path d="M95.9518 27.9284H92.1363L85.8652 18.7485L83.863 20.3729V27.9284H80.5386V7.71747H83.863V17.3885C84.2785 16.8974 84.6941 16.4063 85.1097 15.8774C85.5252 15.3863 85.9408 14.8952 86.3563 14.3663L92.0607 7.67969H95.8007L88.2452 16.5196L95.9518 27.9284Z" fill="white"/>
<path d="M100.296 27.9287V7.71777H103.62V27.9287H100.296Z" fill="white"/>
<path d="M110.646 27.9287V7.71777H113.971V25.0954H122.546V27.9287H110.646Z" fill="white"/>
<path d="M140.226 27.9286L138.262 22.2998H130.555L128.591 27.9286H125.078L132.595 7.64209H136.26L143.777 27.9286H140.226ZM137.393 19.4664L135.466 13.9509C135.391 13.7243 135.278 13.3843 135.164 12.9309C135.013 12.4776 134.9 12.0621 134.749 11.6087C134.598 11.1554 134.484 10.7776 134.409 10.4376C134.333 10.8154 134.22 11.2309 134.069 11.6843C133.918 12.1376 133.804 12.5909 133.691 13.0065C133.578 13.422 133.464 13.7243 133.389 13.9509L131.462 19.4664H137.393Z" fill="white"/>
<path d="M157.916 26.8175H155.538L162.417 8.08328H164.759L171.638 26.8175H169.259L163.661 11.0471H163.515L157.916 26.8175ZM158.795 19.4995H168.381V21.5119H158.795V19.4995Z" fill="white"/>
<path d="M189.412 8.08328V26.8175H187.216L177.007 12.1082H176.825V26.8175H174.556V8.08328H176.751L186.997 22.8292H187.18V8.08328H189.412Z" fill="white"/>
<path d="M194.719 26.8175H192.341L199.22 8.08328H201.562L208.441 26.8175H206.062L200.464 11.0471H200.318L194.719 26.8175ZM195.598 19.4995H205.184V21.5119H195.598V19.4995Z" fill="white"/>
<path d="M211.359 26.8175V8.08328H213.628V24.8051H222.336V26.8175H211.359Z" fill="white"/>
<path d="M223.358 8.08328H225.956L231.152 16.8284H231.372L236.567 8.08328H239.165L232.396 19.097V26.8175H230.127V19.097L223.358 8.08328Z" fill="white"/>
<path d="M242.257 10.0957V8.08328H256.308V10.0957H250.417V26.8175H248.148V10.0957H242.257Z" fill="white"/>
<path d="M262.078 8.08328V26.8175H259.809V8.08328H262.078Z" fill="white"/>
<path d="M281.702 13.9377H279.433C279.299 13.2852 279.064 12.712 278.729 12.218C278.399 11.724 277.997 11.3093 277.521 10.9739C277.052 10.6324 276.53 10.3763 275.957 10.2055C275.384 10.0348 274.786 9.94939 274.164 9.94939C273.03 9.94939 272.002 10.236 271.081 10.8093C270.166 11.3825 269.438 12.2271 268.895 13.3431C268.358 14.4591 268.09 15.8282 268.09 17.4504C268.09 19.0726 268.358 20.4417 268.895 21.5577C269.438 22.6737 270.166 23.5183 271.081 24.0916C272.002 24.6648 273.03 24.9514 274.164 24.9514C274.786 24.9514 275.384 24.866 275.957 24.6953C276.53 24.5245 277.052 24.2715 277.521 23.936C277.997 23.5945 278.399 23.1768 278.729 22.6828C279.064 22.1828 279.299 21.6095 279.433 20.9631H281.702C281.531 21.9205 281.22 22.7773 280.769 23.5336C280.317 24.2897 279.756 24.9331 279.085 25.4637C278.415 25.9882 277.661 26.3876 276.826 26.662C275.997 26.9365 275.109 27.0737 274.164 27.0737C272.566 27.0737 271.145 26.6834 269.901 25.9028C268.657 25.1222 267.678 24.0123 266.965 22.5731C266.251 21.1338 265.895 19.4263 265.895 17.4504C265.895 15.4745 266.251 13.767 266.965 12.3278C267.678 10.8885 268.657 9.77863 269.901 8.99804C271.145 8.21745 272.566 7.82715 274.164 7.82715C275.109 7.82715 275.997 7.96436 276.826 8.23879C277.661 8.51322 278.415 8.91571 279.085 9.44627C279.756 9.97073 280.317 10.6111 280.769 11.3673C281.22 12.1174 281.531 12.9742 281.702 13.9377Z" fill="white"/>
<path d="M295.613 12.7668C295.503 11.8399 295.058 11.1203 294.277 10.608C293.497 10.0957 292.539 9.83962 291.405 9.83962C290.575 9.83962 289.85 9.97378 289.228 10.2421C288.612 10.5104 288.13 10.8794 287.782 11.349C287.441 11.8185 287.27 12.3522 287.27 12.9498C287.27 13.4499 287.389 13.8798 287.627 14.2396C287.871 14.5933 288.182 14.8891 288.56 15.1269C288.938 15.3587 289.334 15.5508 289.749 15.7032C290.164 15.8496 290.545 15.9685 290.893 16.06L292.795 16.5722C293.283 16.7003 293.826 16.8772 294.424 17.1028C295.027 17.3284 295.604 17.6364 296.152 18.0267C296.707 18.4109 297.165 18.9049 297.525 19.5086C297.884 20.1124 298.064 20.8533 298.064 21.7315C298.064 22.7438 297.799 23.6586 297.268 24.4757C296.744 25.2929 295.976 25.9424 294.963 26.4242C293.957 26.906 292.734 27.1468 291.295 27.1468C289.953 27.1468 288.792 26.9304 287.81 26.4974C286.834 26.0644 286.066 25.4606 285.505 24.6861C284.95 23.9116 284.636 23.0121 284.562 21.9876H286.904C286.965 22.695 287.203 23.2805 287.618 23.7439C288.039 24.2013 288.569 24.5428 289.209 24.7685C289.856 24.988 290.551 25.0978 291.295 25.0978C292.161 25.0978 292.939 24.9575 293.628 24.677C294.317 24.3904 294.863 23.994 295.265 23.4878C295.668 22.9755 295.869 22.3779 295.869 21.6949C295.869 21.0728 295.695 20.5667 295.347 20.1764C295 19.7861 294.542 19.469 293.975 19.225C293.408 18.9811 292.795 18.7677 292.137 18.5847L289.831 17.9261C288.368 17.5053 287.209 16.9046 286.355 16.124C285.502 15.3434 285.075 14.3219 285.075 13.0596C285.075 12.0106 285.358 11.0959 285.925 10.3153C286.499 9.5286 287.267 8.91876 288.231 8.48577C289.2 8.04669 290.283 7.82715 291.478 7.82715C292.686 7.82715 293.759 8.04364 294.698 8.47663C295.637 8.90351 296.381 9.48896 296.93 10.233C297.485 10.977 297.778 11.8216 297.808 12.7668H295.613Z" fill="white"/>
</svg>
